<?xml version="1.0" encoding="utf-8"?>
<!-- Generator: Adobe Illustrator 23.1.1, SVG Export Plug-In . SVG Version: 6.00 Build 0)  -->
<svg version="1.1" id="Capa_1" xmlns="http://www.w3.org/2000/svg" xmlns:xlink="http://www.w3.org/1999/xlink" x="0px" y="0px"
	 viewBox="0 0 400 140" style="enable-background:new 0 0 400 140;" xml:space="preserve">
<style type="text/css">
	.st0{fill:#FFFFFF;}
	.st1{fill:#A1A730;}
</style>
<title>core</title>
<g>
	<path class="st0" d="M398.6,105.3c-1.9,6-6,11.4-12.5,16.6c-5.7,4.6-13.8,8.8-24.8,12.7c-9.5,3.4-19,5.2-28.1,5.2c0,0,0,0,0,0
		c-3.1,0-6.1-0.2-9.1-0.6c-12.1-1.6-22.9-6.1-32-13.4c-9.1-7.3-15.9-17-20.2-29c-2.1-6-3.4-12-3.8-18c-0.8,1.4-1.5,3.3-1.7,6.3
		c-0.4,4.4-0.8,9-1.4,13.6c-0.7,5.4-2,10.8-3.8,15.9c-2.4,6.7-6.2,12-11.3,15.9c-5,3.9-11.3,5.8-18.6,5.8c-1.1,0-2.3-0.1-3.5-0.1
		c-8.7-0.7-16.2-4.4-21.5-10.9c-0.4-0.5-0.8-1-1.2-1.5c-12,9.4-27,14.6-42.6,14.6c-15.8,0-30.9-5.3-43-14.9c-3.7,3.2-8.1,6-13,8.5
		c-8.4,4.2-18.5,6.8-30,7.9l-0.3,0c-1.9,0.1-3.8,0.2-5.7,0.2c-10,0-19.7-2-28.9-5.9c-11-4.7-20.4-11.9-27.9-21.3
		C6,103,1.5,91.6,0.3,78.8c-1.2-13.8,1.1-26.1,7-36.7C13,31.8,21,23.4,31.2,17.3c9.9-6,20.8-9.6,32.3-10.6c2.6-0.2,5.2-0.4,7.7-0.4
		c8.9,0,17.3,1.5,24.7,4.5c7,2.7,13.1,6.4,18.2,10.9C126.9,9.3,144,2.3,162.3,2.3c15.7,0,30.5,5.2,42.4,14.3c2.3-4,5.2-7.5,8.7-10.3
		C218.7,2.1,225.3,0,233,0c1.1,0,2.3,0,3.5,0.1c6.4,0.5,12.2,2.5,17.4,5.9c1.3,0.9,2.5,1.8,3.6,2.9c2.2-0.7,4.4-1.3,6.8-1.7
		C269,6.4,273.7,6,278.5,6c2.2,0,4.3,0.1,6.5,0.3c6.8,0.6,13.6,2.7,20.2,6.4c0.2,0.1,0.4,0.2,0.5,0.3c3-1.5,6.2-2.9,9.5-4.1
		c8.4-3,16.6-4.5,24.4-4.5c3.2,0,6.4,0.3,9.4,0.8c10.6,1.7,19.8,5.6,27.4,11.7c7.8,6.2,13.4,13.9,16.5,22.8
		c3.3,9.3,3.8,18.1,1.4,26.1c-1.2,4.1-3,8-5.3,11.5c4,2.3,7.2,5.9,9.1,10.6C400.4,93.1,400.6,99.1,398.6,105.3z"/>
	<g>
		<g>
			<path class="st1" d="M383.3,93c-0.9-2.1-2.2-3.1-4.5-3.4c-2.7-0.3-5.9,0.7-9.4,2.9c-3.6,2.2-7.7,4.2-12.2,6
				c-4.8,2-11.9,4.8-16.9,4.8c-3.9-0.2-12.1,0-17.7-8.9c-0.8-1.2-1.5-2.6-2.2-4.2c5.4-0.5,7.2,0.9,22.1-2.3
				c5.1-1.3,10.2-3.2,15.3-5.8c5-2.6,9.5-5.8,13.4-9.5c2.8-2.7,5-5.9,6.5-9.3c0.5-1.1,0.9-2.2,1.2-3.3c1.4-4.7,1-10.1-1.2-16.1
				c-2.2-6.1-6-11.3-11.4-15.6c-5.4-4.3-12.2-7.2-20.1-8.4c-7.9-1.3-16.6-0.3-25.9,3c-3.8,1.3-7.3,3-10.5,4.8
				c0.7,0.8,1.5,1.6,2.1,2.4c0.4,0.5,0.9,1,1.2,1.6c3.7,5,5.3,10.6,4.9,16.6c-0.2,2.5-0.8,4.8-1.9,7.1c-1.2,2.5-2.8,4.9-5.1,7.1
				c-4.3,4.4-10.1,6.4-17.1,5.8c-3.1-0.3-5.6-0.9-7.6-1.9c-0.7-0.4-1.5-0.7-2.2-1.1c-0.3,1.6-0.4,3.2-0.5,4.8
				c-0.4,6.8,0.6,13.7,3,20.4c3.2,9.1,8.3,16.5,15.1,21.8c6.8,5.4,14.9,8.8,24.1,10c9.3,1.2,19.3,0,29.8-3.8
				c9.2-3.3,16-6.6,20.2-10.1c3-2.4,5.1-4.7,6.4-6.9c0.4-0.7,0.7-1.4,0.9-2C384.1,97,384.1,94.9,383.3,93z"/>
			<path class="st1" d="M311.7,47.8c-0.1,1.9-0.7,3.8-1.6,5.6c-0.9,1.6-2,3.2-3.5,4.7c-3,3-6.9,4.3-12.1,3.9c-2.2-0.2-4-0.6-5.3-1.2
				c-1.3-0.6-2.5-1.2-3.7-1.8c-0.4-0.2-0.7-0.4-1.1-0.6c-0.6-0.3-1.2-0.5-1.9-0.7c-1-0.3-2-0.6-3.1-0.7c-0.6-0.1-1.1-0.1-1.7-0.2
				c-6.6-0.5-12.8,1.6-18.6,6.2c-4.4,3.6-7.4,8.3-8.8,14.1c0,0,0,0,0,0c-0.4,1.8-0.8,3.8-0.9,5.8c-0.3,3.9-0.8,8.2-1.4,12.8
				c-0.6,4.4-1.6,8.6-3,12.6c-0.1,0.3-0.2,0.6-0.4,0.9c-1.3,3.2-3.1,5.7-5.6,7.6c-2.5,1.9-6.2,2.7-11,2.3c-4.4-0.3-7.8-2-10.3-5.1
				c-2.7-3.2-4.6-7.6-5.8-13c0-0.1,0-0.1,0-0.2c-0.1-0.4-0.2-0.8-0.2-1.2c2-3.2,3.7-6.6,5.1-10.2c2.4-6.3,3.7-13.2,3.7-20.3
				c0-10.4-2.8-20.2-7.7-28.7c0.5-3.4,1.2-6.6,2-9.6c0.4-1.2,0.7-2.5,1.2-3.6c1.5-4.1,3.7-7.3,6.7-9.7c2.7-2.2,6.7-3.1,11.8-2.7
				c3.7,0.3,6.9,1.3,9.7,3.2c2.5,1.7,4,4,4.5,7l0.9,5.3l4.2-3.3c3.4-2.6,7.7-4.4,12.9-5.3c5.3-1,10.9-1.2,16.5-0.8
				c4.5,0.4,9.1,1.8,13.6,4.4c0.9,0.5,1.7,1,2.6,1.6c0.9,0.6,1.8,1.3,2.7,2c0.9,0.7,1.7,1.4,2.4,2.2c1.3,1.3,2.5,2.7,3.6,4.2
				C310.9,39.3,312.1,43.3,311.7,47.8z"/>
			<path class="st1" d="M214.2,69.3c0,6.4-1.2,12.6-3.4,18.3c-0.1,0.3-0.2,0.6-0.4,1c-0.8,1.9-1.7,3.8-2.7,5.6
				c-0.8,1.5-1.7,2.9-2.6,4.3c-9.5,13.8-25.6,22.9-43.8,22.9c-16.1,0-30.5-7.1-40.2-18.3c0,0,0,0,0,0c0-0.1,0.1-0.2,0.1-0.3
				c1.6-3.7,2.3-7.5,1.9-11.3c-0.4-4.8-2.7-9.1-6.8-13c-2.1-2-4.7-3.4-7.7-4.2c-0.1-0.9-0.2-1.8-0.2-2.6c0-0.8-0.1-1.6-0.1-2.4
				c0-0.4,0-0.7,0-1.1c0-1.3,0.1-2.6,0.2-3.9c0.3-3.2,0.9-6.2,1.7-9.2c0,0,0,0,0,0c0.6-2.1,1.3-4.1,2.2-6.1c0.6-1.4,1.3-2.8,2.1-4.2
				c0.6-1.2,1.3-2.3,2-3.4c9.4-14.5,25.9-24.1,44.7-24.1c19,0,35.7,9.9,45.1,24.8c1,1.5,1.9,3.1,2.7,4.7v0c1,2,1.9,4.1,2.6,6.3
				C213.3,58.2,214.2,63.6,214.2,69.3z"/>
			<path class="st1" d="M116.3,96.9c-0.3,1.3-0.7,2.6-1.3,3.8c0,0,0,0.1-0.1,0.1c-0.4,1-1,1.9-1.6,2.9c-0.2,0.4-0.5,0.8-0.8,1.2
				c-3.3,4.5-8.3,8.5-14.9,11.7c-6.7,3.3-14.9,5.4-24.4,6.3c-9.4,0.7-18.5-0.8-27.2-4.5c-8.6-3.6-15.9-9.2-21.6-16.5
				c-5.7-7.3-9.1-15.9-10-25.6c-0.6-6.7-0.1-13,1.5-18.6c0.9-3.2,2.1-6.1,3.6-8.9C24,41,30.1,34.6,37.9,29.9
				c7.8-4.7,16.4-7.5,25.5-8.4c9.4-0.9,17.9,0.2,25.2,3c7.3,2.9,13.1,6.9,17.4,12c1.3,1.5,2.3,3,3.3,4.6c-0.7,1.2-1.3,2.4-1.9,3.6
				c-1.3,2.6-2.3,5.4-3.1,8.2c0,0.1-0.1,0.3-0.1,0.4c-1.2,4.3-2,8.9-2.2,13.5c-0.4,0.1-0.7,0.2-1.1,0.2c-1,0.2-2,0.3-3.2,0.4
				c-3,0.3-5.3,0-6.8-0.9c-1.8-1.1-3.3-2.4-4.6-3.9c-1.7-1.9-3.6-3.6-5.7-5.1c-2.6-1.7-5.9-2.4-10.1-2c-4.8,0.4-9,2.5-12.3,6.1
				C56,64.2,54.6,67,54,70c-0.3,1.8-0.4,3.7-0.2,5.7c0.5,5.7,2.8,10,6.7,13c3.8,2.9,8.3,4.1,13.3,3.7c3.9-0.4,6.8-1.3,8.9-2.7
				c1.9-1.3,3.5-2.9,4.9-4.6c1-1.2,2.3-2.3,3.9-3.3c1-0.6,3.2-1.4,7.4-1.8c1.5-0.1,2.8-0.2,4.1-0.1c1.2,0,2.3,0.2,3.3,0.4
				c1.3,0.3,2.5,0.7,3.6,1.3c0.8,0.4,1.4,0.9,2,1.5c3,2.8,4.5,5.7,4.8,8.9C116.8,93.7,116.7,95.3,116.3,96.9z"/>
		</g>
	</g>
</g>
</svg>
