<?xml version="1.0" encoding="utf-8"?>
<!-- Generator: Adobe Illustrator 23.1.1, SVG Export Plug-In . SVG Version: 6.00 Build 0)  -->
<svg version="1.1" id="Capa_1" xmlns="http://www.w3.org/2000/svg" xmlns:xlink="http://www.w3.org/1999/xlink" x="0px" y="0px"
	 viewBox="0 0 400 117" style="enable-background:new 0 0 400 117;" xml:space="preserve">
<style type="text/css">
	.st0{fill:#FFFFFF;}
</style>
<title>core_mini</title>
<g>
	<path class="st0" d="M399.4,84.5c-0.9-2.2-2.4-3.4-4.9-3.6c-2.9-0.3-6.4,0.7-10.2,3.1c-3.9,2.3-8.3,4.5-13.2,6.5
		c-5.2,2.1-12.9,5.2-18.3,5.2c-4.8-0.3-15.6,0.2-21.5-14.2c5.9-0.5,7.8,1,23.9-2.4c5.5-1.4,11.1-3.5,16.6-6.3
		c5.4-2.8,10.3-6.2,14.5-10.3c4-3.9,6.8-8.5,8.3-13.7c1.5-5.1,1.1-10.9-1.2-17.4c-2.3-6.6-6.5-12.2-12.3-16.9
		c-5.9-4.7-13.2-7.8-21.7-9.1c-8.5-1.4-18-0.3-28,3.3c-4.1,1.5-7.9,3.2-11.4,5.2c1.3,1.4,2.5,2.8,3.6,4.3c4,5.4,5.8,11.5,5.3,18
		c-0.4,5.6-3,10.8-7.5,15.4c-4.7,4.8-10.9,6.9-18.5,6.3c-3.3-0.3-6-0.9-8.3-2.1c-0.8-0.4-1.6-0.8-2.4-1.2
		c-1.4,9.1-0.5,18.3,2.7,27.2c3.5,9.9,9,17.8,16.4,23.6c7.4,5.9,16.1,9.5,26.1,10.8c10.1,1.3,20.9,0,32.3-4.1
		c9.9-3.5,17.3-7.2,21.8-10.9c4.3-3.5,7-6.7,7.9-9.7C400.2,88.9,400.2,86.5,399.4,84.5z"/>
	<path class="st0" d="M321.9,35.6c-0.3,4-2.1,7.6-5.5,11.1c-3.2,3.3-7.5,4.7-13.1,4.2c-2.4-0.2-4.3-0.6-5.7-1.3
		c-1.4-0.7-2.7-1.3-4-2c-0.4-0.2-0.8-0.4-1.2-0.6c-0.6-0.3-1.3-0.6-2-0.8c-1-0.4-2.2-0.6-3.4-0.8c-0.6-0.1-1.2-0.2-1.8-0.2
		c-7.1-0.6-13.9,1.7-20.1,6.7c-6.3,5.1-9.8,12.4-10.5,21.6c-0.3,4.2-0.8,8.9-1.5,13.9c-0.6,4.8-1.7,9.3-3.3,13.7
		c-1.4,3.9-3.5,7-6.5,9.2c-2.7,2.1-6.7,3-11.9,2.5c-4.8-0.4-8.5-2.2-11.2-5.5c-3-3.6-5.1-8.4-6.3-14.2c-0.1-0.4-0.2-0.8-0.3-1.3
		c6-9.6,9.5-20.9,9.5-33.1c0-11.3-3-21.9-8.3-31.1c0.7-5.1,1.9-9.9,3.5-14.3c1.6-4.4,4-7.9,7.2-10.5c3-2.4,7.3-3.4,12.7-2.9
		c4,0.3,7.4,1.5,10.5,3.5c2.7,1.8,4.3,4.3,4.8,7.6l0.9,5.7l4.6-3.5c3.7-2.8,8.4-4.8,13.9-5.8c5.8-1,11.8-1.3,17.9-0.9
		c4.9,0.4,9.8,2,14.7,4.7c0.9,0.5,1.9,1.1,2.8,1.7c1,0.7,2,1.4,2.9,2.1c0.9,0.7,1.8,1.5,2.6,2.4c1.4,1.4,2.7,2.9,3.9,4.5
		C321,26.4,322.3,30.7,321.9,35.6z"/>
	<path class="st0" d="M216.3,58.8c0,7.4-1.5,14.4-4.1,20.9c-0.8,2.1-1.8,4.2-2.9,6.1c-0.9,1.6-1.8,3.1-2.9,4.6
		c-10.3,14.9-27.8,24.8-47.5,24.8c-17.4,0-33.1-7.7-43.6-19.8c1.9-4.1,2.6-8.4,2.2-12.6c-0.5-5.2-3-9.9-7.4-14
		c-2.3-2.1-5.1-3.6-8.3-4.5c-0.1-0.9-0.2-1.9-0.2-2.9c0-0.9-0.1-1.7-0.1-2.6c0-0.4,0-0.8,0-1.2c0-1.4,0.1-2.8,0.3-4.2
		c0.6-5.8,2-11.4,4.3-16.6c0.7-1.5,1.4-3.1,2.2-4.5c0.7-1.3,1.4-2.5,2.2-3.7c10.2-15.7,28-26.1,48.3-26.1
		c20.6,0,38.7,10.7,48.8,26.8c1.1,1.7,2,3.3,2.9,5.1v0c1.1,2.2,2,4.5,2.8,6.8C215.3,46.8,216.3,52.7,216.3,58.8z"/>
	<path class="st0" d="M110.4,88.7c-0.3,1.4-0.8,2.8-1.4,4.2c-0.5,1.1-1.1,2.2-1.9,3.3c-0.3,0.4-0.6,0.8-0.9,1.2
		c-3.6,4.9-9,9.2-16.1,12.7c-7.2,3.6-16.1,5.9-26.4,6.8c-10.2,0.8-20.1-0.9-29.4-4.8c-9.3-3.9-17.2-10-23.4-17.9
		C4.9,86.3,1.2,77,0.3,66.4c-1-11.4,0.8-21.4,5.5-29.8c4.7-8.5,11.4-15.4,19.7-20.4c8.4-5.1,17.7-8.2,27.6-9.1
		c10.2-0.9,19.4,0.2,27.3,3.3c7.9,3.1,14.2,7.5,18.9,13c1.4,1.6,2.5,3.3,3.6,4.9c-4.7,8.4-7.5,17.9-7.9,27.9c-1.4,0.3-3,0.6-4.6,0.7
		c-3.3,0.3-5.7,0-7.3-1c-1.9-1.2-3.6-2.6-5-4.2c-1.8-2.1-3.9-3.9-6.2-5.5c-2.8-1.8-6.4-2.6-10.9-2.1c-5.2,0.5-9.7,2.7-13.3,6.6
		c-3.7,4-5.3,9.1-4.7,15c0.6,6.1,3,10.9,7.2,14.1c4.2,3.1,9,4.5,14.4,4c4.2-0.4,7.3-1.4,9.6-3c2-1.4,3.8-3.1,5.3-5
		c1-1.3,2.4-2.5,4.2-3.6c1.1-0.7,3.4-1.6,8-2c1.6-0.1,3.1-0.2,4.5-0.1c1.3,0,2.5,0.2,3.6,0.5c1.4,0.3,2.7,0.8,3.9,1.5
		c0.8,0.4,1.6,1,2.2,1.6c3.2,3,4.9,6.2,5.2,9.6C110.9,85.2,110.8,87,110.4,88.7z"/>
</g>
</svg>
